<svg width="120.000000" height="92.000000" viewBox="0 0 120 92" fill="none" xmlns="http://www.w3.org/2000/svg" xmlns:xlink="http://www.w3.org/1999/xlink">
	<desc>
			Created with Pixso.
	</desc>
	<defs/>
	<path id="Vector" d="M114.73 21.2C116.35 21.2 117.66 22.51 117.66 24.12C117.66 25.73 116.34 27.04 114.73 27.04C113.11 27.04 111.8 25.73 111.8 24.12C111.8 22.51 113.11 21.2 114.73 21.2ZM95.87 2.33C97.48 2.33 98.8 3.64 98.8 5.24C98.8 6.86 97.48 8.16 95.87 8.16C94.25 8.16 92.94 6.85 92.94 5.24C92.94 3.63 94.25 2.33 95.87 2.33Z" fill="#FFFFFF" fill-opacity="1.000000" fill-rule="nonzero"/>
	<path id="Vector" d="M8.19 24.12C8.19 25.73 6.87 27.04 5.26 27.04C3.64 27.04 2.33 25.73 2.33 24.12C2.33 22.51 3.65 21.2 5.26 21.2C6.88 21.2 8.19 22.51 8.19 24.12ZM24.12 8.16C22.5 8.16 21.19 6.85 21.19 5.24C21.19 3.63 22.51 2.33 24.12 2.33C25.74 2.33 27.05 3.64 27.05 5.24C27.05 6.86 25.74 8.16 24.12 8.16Z" fill="#FFFFFF" fill-opacity="1.000000" fill-rule="nonzero"/>
	<path id="Vector" d="M95.87 89.67C94.25 89.67 92.94 88.36 92.94 86.75C92.94 85.14 94.25 83.83 95.87 83.83C97.48 83.83 98.8 85.14 98.8 86.75C98.8 88.36 97.48 89.67 95.87 89.67ZM114.73 70.8C113.11 70.8 111.8 69.49 111.8 67.88C111.8 66.27 113.11 64.96 114.73 64.96C116.35 64.96 117.66 66.27 117.66 67.88C117.66 69.49 116.35 70.8 114.73 70.8Z" fill="#FFFFFF" fill-opacity="1.000000" fill-rule="nonzero"/>
	<path id="Vector" d="M5.26 70.8C3.64 70.8 2.33 69.49 2.33 67.88C2.33 66.27 3.65 64.96 5.26 64.96C6.88 64.96 8.19 66.27 8.19 67.88C8.19 69.49 6.88 70.8 5.26 70.8ZM24.12 89.67C22.5 89.67 21.19 88.36 21.19 86.75C21.19 85.14 22.51 83.83 24.12 83.83C25.74 83.83 27.05 85.14 27.05 86.75C27.05 88.36 25.74 89.67 24.12 89.67Z" fill="#FFFFFF" fill-opacity="1.000000" fill-rule="nonzero"/>
	<path id="Vector" d="M35.63 45.82L35.12 46.33L35.63 46.84C49.06 60.23 70.92 60.23 84.36 46.84L84.87 46.33L84.36 45.82C70.92 32.44 49.06 32.44 35.63 45.82ZM67.86 46.33C67.86 50.65 64.33 54.16 60 54.16C55.66 54.16 52.13 50.65 52.13 46.33C52.13 42.01 55.66 38.5 60 38.5C64.33 38.5 67.86 42.01 67.86 46.33Z" fill="#FFFFFF" fill-opacity="1.000000" fill-rule="nonzero"/>
	<path id="Vector" d="M62.84 22.67C63.22 24.23 62.24 25.81 60.67 26.18C59.09 26.55 57.52 25.58 57.14 24.01C56.77 22.44 57.75 20.87 59.32 20.5C60.9 20.13 62.47 21.1 62.84 22.67Z" fill="#FFFFFF" fill-opacity="1.000000" fill-rule="evenodd"/>
	<path id="Vector" d="M54.47 46.33C54.47 49.37 56.95 51.84 60 51.84C63.04 51.84 65.52 49.37 65.52 46.33C65.52 43.29 63.04 40.82 60 40.82C56.95 40.82 54.47 43.29 54.47 46.33Z" fill="#49BAFC" fill-opacity="1.000000" fill-rule="nonzero"/>
	<path id="Vector" d="M81.35 25.87C81.78 26.51 82.45 26.96 83.21 27.11C83.98 27.25 84.76 27.1 85.41 26.67C86.06 26.24 86.51 25.58 86.66 24.81C86.81 24.05 86.65 23.27 86.22 22.62C85.78 21.97 85.12 21.53 84.35 21.38C84.16 21.34 83.97 21.32 83.78 21.32C83.2 21.32 82.64 21.49 82.15 21.81C81.5 22.25 81.06 22.91 80.91 23.67C80.76 24.44 80.92 25.22 81.35 25.87Z" fill="#FFFFFF" fill-opacity="1.000000" fill-rule="nonzero"/>
	<path id="Vector" d="M62.06 66.6C63.2 67.74 63.2 69.59 62.06 70.73C60.92 71.87 59.06 71.87 57.92 70.73C56.77 69.59 56.77 67.74 57.92 66.6C59.06 65.46 60.92 65.46 62.06 66.6Z" fill="#FFFFFF" fill-opacity="1.000000" fill-rule="evenodd"/>
	<path id="Vector" d="M85.41 65.37C84.92 65.05 84.36 64.88 83.79 64.88C83.6 64.88 83.41 64.9 83.21 64.94C82.45 65.09 81.78 65.53 81.35 66.18L81.35 66.18C80.92 66.83 80.76 67.6 80.91 68.37C81.06 69.13 81.51 69.79 82.16 70.23C82.81 70.66 83.59 70.81 84.35 70.67C85.12 70.51 85.78 70.07 86.22 69.42C86.65 68.77 86.81 68 86.66 67.23C86.51 66.47 86.06 65.81 85.41 65.37Z" fill="#FFFFFF" fill-opacity="1.000000" fill-rule="nonzero"/>
	<path id="Vector" d="M34.57 26.67C35.22 27.1 36.01 27.25 36.77 27.11C37.54 26.96 38.2 26.51 38.64 25.87L38.64 25.86C39.07 25.22 39.23 24.44 39.08 23.67C38.92 22.91 38.48 22.25 37.83 21.81C37.34 21.49 36.78 21.32 36.21 21.32C36.02 21.32 35.83 21.34 35.63 21.38C34.87 21.53 34.21 21.97 33.77 22.62C33.34 23.27 33.18 24.05 33.33 24.81C33.48 25.58 33.92 26.24 34.57 26.67Z" fill="#FFFFFF" fill-opacity="1.000000" fill-rule="nonzero"/>
	<path id="Vector" d="M38.64 66.18C38.2 65.53 37.54 65.09 36.77 64.94C36.58 64.9 36.39 64.88 36.2 64.88C35.63 64.88 35.06 65.05 34.57 65.37C33.92 65.81 33.48 66.47 33.33 67.23C33.18 68 33.33 68.78 33.77 69.42C34.2 70.07 34.86 70.51 35.63 70.66C36.4 70.81 37.18 70.66 37.83 70.23C38.48 69.79 38.92 69.13 39.07 68.37C39.23 67.6 39.07 66.82 38.64 66.18Z" fill="#FFFFFF" fill-opacity="1.000000" fill-rule="nonzero"/>
	<path id="Vector" d="M52.13 46.33C52.13 50.65 55.66 54.16 59.99 54.16C64.33 54.16 67.85 50.65 67.85 46.33C67.85 42.01 64.33 38.5 59.99 38.5C55.66 38.5 52.13 42.01 52.13 46.33ZM65.52 46.33C65.52 49.37 63.04 51.84 59.99 51.84C56.94 51.84 54.47 49.37 54.47 46.33C54.47 43.29 56.94 40.82 59.99 40.82C63.04 40.82 65.52 43.29 65.52 46.33Z" fill="#081A56" fill-opacity="1.000000" fill-rule="nonzero"/>
	<path id="Vector" d="M76.8 30.09L80.15 28.03C80.87 28.71 81.76 29.19 82.76 29.39C83.1 29.46 83.45 29.49 83.8 29.49C84.83 29.49 85.83 29.19 86.71 28.61C87.88 27.83 88.67 26.64 88.95 25.27C89.22 23.89 88.94 22.49 88.16 21.33C86.55 18.93 83.28 18.27 80.86 19.88C78.79 21.26 78.03 23.86 78.86 26.08L75.02 28.45C74.68 28.66 74.46 29.03 74.46 29.43L74.41 36.4C70.18 34.6 65.68 33.65 61.16 33.51L61.16 28.48C63.5 27.95 65.26 25.87 65.26 23.38C65.26 20.49 62.89 18.13 59.99 18.13C57.09 18.13 54.73 20.49 54.73 23.38C54.73 25.87 56.48 27.95 58.83 28.48L58.83 33.51C54.3 33.65 49.81 34.6 45.58 36.4L45.52 29.43C45.52 29.03 45.31 28.66 44.97 28.45L41.12 26.08C41.96 23.86 41.2 21.26 39.13 19.88C36.71 18.27 33.43 18.93 31.83 21.33C31.04 22.49 30.77 23.89 31.04 25.27C31.31 26.64 32.11 27.83 33.28 28.61C34.15 29.19 35.16 29.49 36.19 29.49C36.54 29.49 36.88 29.46 37.23 29.39C38.23 29.19 39.12 28.71 39.84 28.03L43.19 30.09L43.25 37.24C43.25 37.31 43.28 37.38 43.29 37.45C39.93 39.15 36.78 41.38 33.98 44.17L32.64 45.51C32.42 45.72 32.3 46.02 32.3 46.33C32.3 46.64 32.42 46.93 32.64 47.15L33.98 48.48C36.77 51.26 39.91 53.48 43.25 55.18L43.19 61.95L39.84 64.01C38.1 62.35 35.37 62.05 33.28 63.43C32.11 64.21 31.31 65.4 31.04 66.78C30.77 68.15 31.05 69.55 31.83 70.71C32.61 71.88 33.8 72.67 35.18 72.94C35.53 73.01 35.87 73.05 36.22 73.05C37.25 73.05 38.25 72.74 39.13 72.16C41.2 70.78 41.96 68.19 41.12 65.96L44.97 63.6C45.31 63.38 45.52 63.01 45.53 62.62L45.57 56.26C49.81 58.05 54.3 59 58.83 59.15L58.83 63.56C56.49 64.09 54.73 66.17 54.73 68.66C54.73 71.56 57.09 73.91 60 73.91C62.9 73.91 65.26 71.56 65.26 68.66C65.26 66.17 63.5 64.09 61.16 63.56L61.16 59.15C65.69 59 70.18 58.05 74.42 56.26L74.46 62.62C74.47 63.02 74.68 63.39 75.02 63.6L78.87 65.96C78.03 68.19 78.79 70.78 80.86 72.16C81.74 72.74 82.74 73.05 83.77 73.05C84.12 73.05 84.46 73.01 84.81 72.94C86.19 72.67 87.38 71.88 88.16 70.71C88.94 69.55 89.22 68.15 88.95 66.77C88.68 65.4 87.88 64.21 86.71 63.43C84.62 62.04 81.89 62.35 80.15 64.01L76.8 61.95L76.74 55.18C80.08 53.48 83.22 51.26 86.01 48.48L87.35 47.15C87.57 46.93 87.69 46.63 87.69 46.33C87.69 46.02 87.57 45.72 87.35 45.5L86.01 44.17C83.21 41.38 80.05 39.15 76.7 37.45C76.71 37.38 76.74 37.31 76.74 37.23L76.8 30.09ZM80.91 23.67C81.06 22.91 81.51 22.25 82.16 21.81C82.65 21.49 83.21 21.32 83.78 21.32C83.97 21.32 84.16 21.34 84.36 21.38C85.12 21.53 85.78 21.97 86.22 22.62C86.65 23.27 86.81 24.05 86.66 24.81C86.51 25.57 86.06 26.23 85.41 26.67C84.76 27.1 83.98 27.25 83.22 27.11C82.45 26.95 81.79 26.51 81.35 25.87L81.35 25.86C80.92 25.22 80.76 24.44 80.91 23.67ZM38.64 25.87C38.2 26.52 37.54 26.96 36.77 27.11C36.01 27.25 35.22 27.1 34.57 26.67C33.92 26.24 33.48 25.58 33.33 24.81C33.18 24.05 33.33 23.27 33.77 22.62C34.2 21.97 34.86 21.53 35.63 21.38C35.82 21.34 36.02 21.32 36.21 21.32C36.78 21.32 37.34 21.49 37.83 21.81C38.48 22.25 38.92 22.91 39.07 23.67C39.23 24.44 39.07 25.22 38.64 25.87ZM39.08 68.37C38.92 69.13 38.48 69.79 37.83 70.23C37.18 70.66 36.4 70.81 35.63 70.67C34.87 70.51 34.21 70.07 33.77 69.42C33.34 68.78 33.18 68 33.33 67.24C33.48 66.47 33.93 65.81 34.58 65.38C35.07 65.05 35.63 64.88 36.2 64.88C36.39 64.88 36.59 64.9 36.78 64.94C37.54 65.09 38.21 65.53 38.64 66.18L38.64 66.18C39.07 66.82 39.23 67.6 39.08 68.37ZM81.35 66.18C81.78 65.53 82.45 65.09 83.21 64.94C83.4 64.9 83.6 64.88 83.79 64.88C84.36 64.88 84.93 65.05 85.41 65.37C86.06 65.81 86.51 66.46 86.66 67.23C86.81 68 86.65 68.78 86.22 69.42C85.78 70.07 85.12 70.51 84.36 70.67C83.59 70.81 82.81 70.66 82.16 70.23C81.51 69.79 81.06 69.14 80.91 68.37C80.76 67.6 80.92 66.82 81.35 66.18ZM57.06 23.38C57.06 21.77 58.38 20.46 59.99 20.46C61.61 20.46 62.92 21.77 62.92 23.38C62.92 24.99 61.61 26.3 59.99 26.3C58.38 26.3 57.06 24.99 57.06 23.38ZM62.92 68.66C62.92 70.28 61.61 71.58 60 71.58C58.38 71.58 57.07 70.27 57.07 68.66C57.07 67.05 58.38 65.75 60 65.75C61.61 65.75 62.92 67.06 62.92 68.66ZM84.36 45.82L84.87 46.33L84.36 46.84C70.92 60.22 49.06 60.22 35.63 46.84L35.12 46.33L35.63 45.82C49.06 32.43 70.92 32.43 84.36 45.82Z" fill="#081A56" fill-opacity="1.000000" fill-rule="nonzero"/>
	<path id="Vector" d="M95.87 10.49C98.37 10.49 100.46 8.74 100.99 6.41L113.56 6.41L113.56 19.01C111.22 19.54 109.46 21.62 109.46 24.11C109.46 27.01 111.82 29.36 114.72 29.36C117.63 29.36 119.99 27.01 119.99 24.11C119.99 21.62 118.23 19.54 115.89 19.01L115.89 5.34C115.89 5.18 115.86 5.03 115.8 4.89C115.65 4.42 115.22 4.08 114.7 4.08L100.99 4.08C100.45 1.75 98.36 0 95.86 0C92.96 0 90.6 2.35 90.6 5.24C90.6 8.14 92.97 10.49 95.87 10.49ZM114.73 21.2C116.35 21.2 117.66 22.51 117.66 24.12C117.66 25.73 116.34 27.04 114.73 27.04C113.11 27.04 111.8 25.73 111.8 24.12C111.8 22.51 113.11 21.2 114.73 21.2ZM95.87 2.33C97.48 2.33 98.8 3.64 98.8 5.24C98.8 6.86 97.48 8.16 95.87 8.16C94.25 8.16 92.94 6.85 92.94 5.24C92.94 3.63 94.25 2.33 95.87 2.33Z" fill="#081A56" fill-opacity="1.000000" fill-rule="nonzero"/>
	<path id="Vector" d="M24.12 0C21.62 0 19.53 1.75 19 4.08L5.28 4.08C4.76 4.08 4.34 4.42 4.19 4.89C4.13 5.03 4.09 5.18 4.09 5.35L4.09 19.01C1.75 19.54 0 21.63 0 24.12C0 27.01 2.36 29.36 5.26 29.36C8.16 29.36 10.53 27.01 10.53 24.12C10.53 21.63 8.77 19.54 6.43 19.01L6.43 6.41L19 6.41C19.53 8.74 21.62 10.49 24.12 10.49C27.02 10.49 29.38 8.14 29.38 5.25C29.39 2.35 27.02 0 24.12 0ZM8.19 24.12C8.19 25.73 6.87 27.04 5.26 27.04C3.64 27.04 2.33 25.73 2.33 24.12C2.33 22.51 3.65 21.2 5.26 21.2C6.88 21.2 8.19 22.51 8.19 24.12ZM24.12 8.16C22.5 8.16 21.19 6.85 21.19 5.24C21.19 3.63 22.51 2.33 24.12 2.33C25.74 2.33 27.05 3.64 27.05 5.24C27.05 6.86 25.74 8.16 24.12 8.16Z" fill="#081A56" fill-opacity="1.000000" fill-rule="nonzero"/>
	<path id="Vector" d="M114.73 62.63C111.83 62.63 109.46 64.99 109.46 67.88C109.46 70.37 111.22 72.45 113.56 72.98L113.56 85.59L100.99 85.59C100.46 83.25 98.37 81.5 95.87 81.5C92.97 81.5 90.6 83.86 90.6 86.75C90.6 89.64 92.97 92 95.87 92C98.37 92 100.46 90.24 100.99 87.91L114.71 87.91C115.23 87.91 115.65 87.57 115.8 87.11C115.86 86.97 115.9 86.81 115.9 86.65L115.9 72.98C118.24 72.45 120 70.37 120 67.88C119.99 64.99 117.63 62.63 114.73 62.63ZM95.87 89.67C94.25 89.67 92.94 88.36 92.94 86.75C92.94 85.14 94.25 83.83 95.87 83.83C97.48 83.83 98.8 85.14 98.8 86.75C98.8 88.36 97.48 89.67 95.87 89.67ZM114.73 70.8C113.11 70.8 111.8 69.49 111.8 67.88C111.8 66.27 113.11 64.96 114.73 64.96C116.35 64.96 117.66 66.27 117.66 67.88C117.66 69.49 116.35 70.8 114.73 70.8Z" fill="#081A56" fill-opacity="1.000000" fill-rule="nonzero"/>
	<path id="Vector" d="M24.12 81.5C21.62 81.5 19.53 83.25 19 85.59L6.43 85.59L6.43 72.98C8.77 72.45 10.53 70.37 10.53 67.88C10.53 64.99 8.16 62.63 5.26 62.63C2.36 62.63 0 64.99 0 67.88C0 70.37 1.75 72.45 4.1 72.98L4.1 86.65C4.1 86.81 4.13 86.97 4.19 87.11C4.34 87.57 4.77 87.91 5.28 87.91L19 87.91C19.53 90.24 21.62 92 24.12 92C27.03 92 29.39 89.64 29.39 86.75C29.39 83.86 27.02 81.5 24.12 81.5ZM5.26 70.8C3.64 70.8 2.33 69.49 2.33 67.88C2.33 66.27 3.65 64.96 5.26 64.96C6.88 64.96 8.19 66.27 8.19 67.88C8.19 69.49 6.88 70.8 5.26 70.8ZM24.12 89.67C22.5 89.67 21.19 88.36 21.19 86.75C21.19 85.14 22.51 83.83 24.12 83.83C25.74 83.83 27.05 85.14 27.05 86.75C27.05 88.36 25.74 89.67 24.12 89.67Z" fill="#081A56" fill-opacity="1.000000" fill-rule="nonzero"/>
</svg>
