<svg width="122.889404" height="124.378784" viewBox="0 0 122.889 124.379" fill="none" xmlns="http://www.w3.org/2000/svg" xmlns:xlink="http://www.w3.org/1999/xlink">
	<desc>
			Created with Pixso.
	</desc>
	<defs/>
	<path id="Vector" d="M56.15 46.82C55.05 44.46 53.18 42.47 50.38 41.07C40.85 36.29 32.48 39.2 25.77 45.67C16.35 54.76 10.37 71.13 9.36 81.06C9.24 82.22 10.09 83.28 11.25 83.42C12.42 83.56 13.46 82.74 13.58 81.58C14.51 72.37 20.01 57.18 28.76 48.75C34.16 43.53 40.87 40.99 48.55 44.84C50.21 45.68 51.36 46.83 52.1 48.19C51.12 48.55 50.15 48.93 49.2 49.33C45.4 50.92 36.48 56.83 32.02 63.1C28.49 68.06 27.71 73.23 32.26 77.19C34.86 79.46 38.11 79.68 41.49 78.25C45.67 76.5 50.12 72.03 53.24 66.68C55.83 62.24 57.48 57.22 57.43 52.76C57.42 52.13 57.38 51.52 57.3 50.92C76.48 44.9 100.76 45.27 119.12 52.8C120.21 53.25 121.44 52.74 121.86 51.66C122.28 50.58 121.74 49.34 120.65 48.89C101.5 41.04 76.2 40.6 56.15 46.82ZM53.17 52.34C52.41 52.63 51.66 52.93 50.92 53.24C47.51 54.67 39.5 59.97 35.5 65.6C33.38 68.58 32.28 71.65 35 74.03C36.34 75.2 38.03 75.08 39.77 74.35C42.08 73.38 44.44 71.36 46.54 68.82C49.8 64.89 52.42 59.72 53.05 54.94C53.16 54.06 53.21 53.19 53.17 52.34Z" fill="#49BAFC" fill-opacity="1.000000" fill-rule="evenodd"/>
	<path id="Vector" d="M90.83 62.38C98.5 56.5 110.07 53.36 119.88 52.83C121.05 52.77 121.92 51.77 121.83 50.61C121.74 49.44 120.72 48.54 119.56 48.61C108.96 49.17 96.49 52.64 88.2 59C87.28 59.71 87.12 61.03 87.85 61.97C88.58 62.9 89.91 63.09 90.83 62.38Z" fill="#49BAFC" fill-opacity="1.000000" fill-rule="evenodd"/>
	<path id="Vector" d="M119.96 48.44C112.1 46.56 103.78 39.61 99.32 32.8C98.67 31.81 97.35 31.51 96.38 32.14C95.4 32.76 95.14 34.07 95.78 35.06C100.8 42.72 110.22 50.44 119.07 52.55C120.21 52.83 121.34 52.12 121.59 50.99C121.83 49.85 121.11 48.71 119.96 48.44Z" fill="#49BAFC" fill-opacity="1.000000" fill-rule="evenodd"/>
</svg>
