<svg width="119.771484" height="124.728027" viewBox="0 0 119.771 124.728" fill="none" xmlns="http://www.w3.org/2000/svg" xmlns:xlink="http://www.w3.org/1999/xlink">
	<desc>
			Created with Pixso.
	</desc>
	<defs/>
	<path id="Vector" d="M66.23 77.09C67.5 79.32 69.49 81.11 72.36 82.22C82.13 86.01 90.19 82.29 96.34 75.2C104.99 65.23 109.7 48.39 109.97 38.43C110 37.27 109.08 36.3 107.92 36.27C106.76 36.25 105.79 37.17 105.76 38.33C105.51 47.57 101.19 63.2 93.17 72.44C88.21 78.16 81.77 81.35 73.89 78.29C72.19 77.63 70.97 76.6 70.14 75.32C71.08 74.86 72.01 74.39 72.92 73.9C76.55 71.94 84.94 65.19 88.89 58.52C92.01 53.24 92.4 48.03 87.62 44.55C84.89 42.56 81.65 42.66 78.41 44.42C74.42 46.58 70.34 51.46 67.66 57.07C65.42 61.74 64.15 66.9 64.54 71.32C64.59 71.94 64.68 72.54 64.79 73.13C46.29 81.02 22.26 83.07 3.57 77.42C2.46 77.09 1.28 77.72 0.94 78.83C0.6 79.95 1.23 81.12 2.34 81.46C21.84 87.35 46.87 85.26 66.23 77.09ZM68.77 71.31C69.5 70.94 70.23 70.57 70.93 70.19C74.2 68.43 81.72 62.37 85.27 56.38C87.14 53.21 88.01 50.05 85.14 47.96C83.73 46.94 82.07 47.22 80.4 48.12C78.19 49.32 76.01 51.56 74.12 54.28C71.18 58.51 68.98 63.91 68.71 68.72C68.66 69.6 68.68 70.47 68.77 71.31Z" fill="#49BAFC" fill-opacity="1.000000" fill-rule="evenodd"/>
	<path id="Vector" d="M30.82 65.09C23.67 71.7 12.47 75.97 2.81 77.47C1.66 77.65 0.87 78.72 1.04 79.87C1.22 81.02 2.29 81.81 3.44 81.63C13.87 80.01 25.94 75.32 33.67 68.18C34.53 67.39 34.58 66.06 33.8 65.21C33.01 64.35 31.68 64.3 30.82 65.09Z" fill="#49BAFC" fill-opacity="1.000000" fill-rule="evenodd"/>
	<path id="Vector" d="M3.05 81.84C10.96 82.92 19.69 88.99 24.6 95.31C25.32 96.23 26.64 96.39 27.56 95.67C28.47 94.96 28.64 93.63 27.93 92.71C22.41 85.61 12.53 78.88 3.64 77.66C2.49 77.51 1.42 78.32 1.26 79.47C1.1 80.62 1.9 81.68 3.05 81.84Z" fill="#49BAFC" fill-opacity="1.000000" fill-rule="evenodd"/>
</svg>
