<svg width="120.000000" height="92.000000" viewBox="0 0 120 92" fill="none" xmlns="http://www.w3.org/2000/svg" xmlns:xlink="http://www.w3.org/1999/xlink">
	<desc>
			Created with Pixso.
	</desc>
	<defs/>
	<path id="Vector" d="M68.26 33.54L65.55 33.54L64.21 35.53C64.34 35.75 64.45 35.98 64.5 36.24C64.61 36.81 64.49 37.38 64.17 37.86C63.85 38.34 63.36 38.67 62.79 38.78C62.64 38.81 62.5 38.82 62.36 38.82C61.94 38.82 61.52 38.69 61.16 38.45C60.68 38.13 60.35 37.64 60.24 37.07C60.13 36.51 60.24 35.93 60.57 35.45C60.89 34.97 61.38 34.64 61.95 34.54C62.21 34.48 62.47 34.5 62.71 34.54L64.32 32.14C64.48 31.9 64.76 31.75 65.06 31.75L68.26 31.75L68.26 30.32L65.06 30.32C64.76 30.32 64.48 30.17 64.32 29.92L62.71 27.52C62.6 27.54 62.49 27.57 62.37 27.57C62.23 27.57 62.09 27.56 61.95 27.54C61.38 27.42 60.89 27.1 60.56 26.62C60.24 26.14 60.12 25.57 60.24 25C60.35 24.43 60.67 23.94 61.16 23.62C61.64 23.3 62.22 23.18 62.79 23.29C63.35 23.4 63.85 23.73 64.17 24.21C64.5 24.69 64.61 25.26 64.5 25.83C64.45 26.08 64.34 26.32 64.21 26.54L65.55 28.53L68.26 28.53L68.26 21.23L49.29 21.23L49.29 26.36L53.95 26.36C54.3 25.62 55.04 25.1 55.92 25.1C57.12 25.1 58.09 26.06 58.09 27.26C58.09 28.45 57.12 29.42 55.92 29.42C55.04 29.42 54.3 28.89 53.95 28.15L49.29 28.15L49.29 32.08L55.86 32.08C56.35 32.08 56.76 32.48 56.76 32.97L56.76 35.57C57.5 35.91 58.03 36.65 58.03 37.52C58.03 38.71 57.06 39.68 55.86 39.68C54.66 39.68 53.69 38.71 53.69 37.52C53.69 36.65 54.21 35.91 54.96 35.57L54.96 33.87L49.29 33.87L49.29 40.11L68.26 40.11L68.26 33.54L68.26 33.54Z" fill="#49BAFC" fill-opacity="1.000000" fill-rule="nonzero"/>
	<path id="Vector" d="M85.71 30.17C81.99 30.45 78.26 31.03 74.6 31.88L74.6 42.34C74.6 44.59 72.76 46.43 70.49 46.43L60.63 46.43L60.63 89.9L61.36 89.59C74.13 84.09 88.05 82.21 101.67 84.15L101.67 30.73C96.39 29.95 91.02 29.76 85.71 30.17ZM64.94 61.35C63.8 61.35 62.88 60.43 62.88 59.3C62.88 58.5 63.36 57.82 64.04 57.49L64.04 48.57C64.04 48.07 64.44 47.67 64.94 47.67C65.43 47.67 65.83 48.07 65.83 48.57L65.83 57.49C66.51 57.82 66.99 58.5 66.99 59.3C66.99 60.43 66.07 61.35 64.94 61.35ZM71.35 53.23C71.35 53.73 70.95 54.13 70.45 54.13C69.95 54.13 69.55 53.73 69.55 53.23L69.55 48.57C69.55 48.07 69.95 47.67 70.45 47.67C70.95 47.67 71.35 48.07 71.35 48.57L71.35 53.23ZM81.21 42.54L76.52 42.54C76.02 42.54 75.62 42.14 75.62 41.64C75.62 41.15 76.02 40.75 76.52 40.75L81.21 40.75C81.7 40.75 82.11 41.15 82.11 41.64C82.11 42.14 81.7 42.54 81.21 42.54ZM87.31 38.2C86.5 38.2 85.82 37.73 85.48 37.05L76.52 37.05C76.02 37.05 75.62 36.65 75.62 36.16C75.62 35.66 76.02 35.26 76.52 35.26L85.48 35.26C85.82 34.59 86.5 34.11 87.3 34.11C88.44 34.11 89.36 35.03 89.36 36.16C89.36 37.29 88.44 38.2 87.31 38.2Z" fill="#FFFFFF" fill-opacity="1.000000" fill-rule="nonzero"/>
	<path id="Vector" d="M42.94 42.34L42.94 31.38C34.75 29.75 26.43 29.52 18.19 30.73L18.19 84.15C31.81 82.21 45.73 84.09 58.49 89.59L58.83 89.73L58.83 46.43L47.05 46.43C44.78 46.43 42.94 44.59 42.94 42.34ZM41.02 42.54L36.33 42.54C35.84 42.54 35.43 42.14 35.43 41.64C35.43 41.15 35.84 40.75 36.33 40.75L41.02 40.75C41.52 40.75 41.92 41.15 41.92 41.64C41.92 42.14 41.52 42.54 41.02 42.54ZM41.02 37.05L32.06 37.05C31.72 37.73 31.04 38.2 30.23 38.2C29.1 38.2 28.18 37.29 28.18 36.16C28.18 35.03 29.1 34.11 30.23 34.11C31.04 34.11 31.72 34.59 32.06 35.26L41.02 35.26C41.52 35.26 41.92 35.66 41.92 36.16C41.92 36.65 41.52 37.05 41.02 37.05ZM53.01 57.49L53.01 48.57C53.01 48.07 53.41 47.67 53.91 47.67C54.4 47.67 54.81 48.07 54.81 48.57L54.81 57.49C55.48 57.82 55.96 58.5 55.96 59.3C55.96 60.43 55.04 61.35 53.9 61.35C52.77 61.35 51.85 60.43 51.85 59.3C51.85 58.5 52.33 57.82 53.01 57.49ZM47.49 48.57C47.49 48.07 47.9 47.67 48.39 47.67C48.89 47.67 49.29 48.07 49.29 48.57L49.29 53.23C49.29 53.73 48.89 54.13 48.39 54.13C47.9 54.13 47.49 53.73 47.49 53.23L47.49 48.57Z" fill="#FFFFFF" fill-opacity="1.000000" fill-rule="nonzero"/>
	<path id="Vector" d="M47.05 44.64L70.49 44.64C71.77 44.64 72.81 43.61 72.81 42.34L72.81 19.01C72.81 17.74 71.77 16.7 70.49 16.7L47.05 16.7C45.77 16.7 44.74 17.74 44.74 19.01L44.74 42.34C44.74 43.61 45.77 44.64 47.05 44.64ZM47.48 20.34C47.48 19.84 47.89 19.44 48.38 19.44L69.16 19.44C69.65 19.44 70.05 19.84 70.05 20.34L70.05 41.01C70.05 41.5 69.65 41.9 69.16 41.9L48.38 41.9C47.89 41.9 47.48 41.5 47.48 41.01L47.48 20.34Z" fill="#49BAFC" fill-opacity="1.000000" fill-rule="nonzero"/>
	<path id="Vector" d="M76.52 20.59L81.21 20.59C81.7 20.59 82.11 20.19 82.11 19.7C82.11 19.2 81.7 18.8 81.21 18.8L76.52 18.8C76.02 18.8 75.62 19.2 75.62 19.7C75.62 20.19 76.02 20.59 76.52 20.59Z" fill="#081A56" fill-opacity="1.000000" fill-rule="nonzero"/>
	<path id="Vector" d="M76.52 26.08L85.48 26.08C85.82 26.76 86.5 27.23 87.31 27.23C88.44 27.23 89.36 26.31 89.36 25.19C89.36 24.06 88.44 23.14 87.31 23.14C86.5 23.14 85.82 23.62 85.48 24.29L76.52 24.29C76.02 24.29 75.62 24.69 75.62 25.18C75.62 25.68 76.02 26.08 76.52 26.08Z" fill="#081A56" fill-opacity="1.000000" fill-rule="nonzero"/>
	<path id="Vector" d="M87.31 34.11C86.5 34.11 85.82 34.59 85.48 35.26L76.52 35.26C76.02 35.26 75.62 35.66 75.62 36.16C75.62 36.65 76.02 37.05 76.52 37.05L85.48 37.05C85.82 37.73 86.5 38.2 87.31 38.2C88.44 38.2 89.36 37.28 89.36 36.15C89.36 35.03 88.44 34.11 87.31 34.11Z" fill="#081A56" fill-opacity="1.000000" fill-rule="nonzero"/>
	<path id="Vector" d="M81.21 40.75L76.52 40.75C76.02 40.75 75.62 41.15 75.62 41.64C75.62 42.14 76.02 42.54 76.52 42.54L81.21 42.54C81.7 42.54 82.11 42.14 82.11 41.64C82.11 41.15 81.7 40.75 81.21 40.75Z" fill="#081A56" fill-opacity="1.000000" fill-rule="nonzero"/>
	<path id="Vector" d="M41.02 40.75L36.33 40.75C35.84 40.75 35.43 41.15 35.43 41.64C35.43 42.14 35.84 42.54 36.33 42.54L41.02 42.54C41.52 42.54 41.92 42.14 41.92 41.64C41.92 41.15 41.52 40.75 41.02 40.75Z" fill="#081A56" fill-opacity="1.000000" fill-rule="nonzero"/>
	<path id="Vector" d="M41.02 35.26L32.06 35.26C31.72 34.59 31.04 34.11 30.23 34.11C29.1 34.11 28.18 35.03 28.18 36.16C28.18 37.28 29.1 38.2 30.23 38.2C31.04 38.2 31.72 37.73 32.06 37.05L41.02 37.05C41.52 37.05 41.92 36.65 41.92 36.16C41.92 35.66 41.52 35.26 41.02 35.26Z" fill="#081A56" fill-opacity="1.000000" fill-rule="nonzero"/>
	<path id="Vector" d="M30.23 27.23C31.04 27.23 31.72 26.76 32.06 26.08L41.02 26.08C41.52 26.08 41.92 25.68 41.92 25.19C41.92 24.69 41.52 24.29 41.02 24.29L32.06 24.29C31.72 23.62 31.04 23.14 30.23 23.14C29.1 23.14 28.18 24.06 28.18 25.19C28.18 26.31 29.1 27.23 30.23 27.23Z" fill="#081A56" fill-opacity="1.000000" fill-rule="nonzero"/>
	<path id="Vector" d="M36.33 20.59L41.02 20.59C41.52 20.59 41.92 20.19 41.92 19.7C41.92 19.2 41.52 18.8 41.02 18.8L36.33 18.8C35.84 18.8 35.43 19.2 35.43 19.7C35.43 20.19 35.84 20.59 36.33 20.59Z" fill="#081A56" fill-opacity="1.000000" fill-rule="nonzero"/>
	<path id="Vector" d="M70.45 47.67C69.95 47.67 69.55 48.07 69.55 48.57L69.55 53.23C69.55 53.73 69.95 54.13 70.45 54.13C70.94 54.13 71.35 53.73 71.35 53.23L71.35 48.57C71.35 48.07 70.94 47.67 70.45 47.67Z" fill="#081A56" fill-opacity="1.000000" fill-rule="nonzero"/>
	<path id="Vector" d="M65.83 57.49L65.83 48.57C65.83 48.07 65.43 47.67 64.94 47.67C64.44 47.67 64.04 48.07 64.04 48.57L64.04 57.49C63.36 57.82 62.88 58.5 62.88 59.3C62.88 60.43 63.8 61.35 64.94 61.35C66.07 61.35 66.99 60.43 66.99 59.3C66.99 58.5 66.51 57.82 65.83 57.49Z" fill="#081A56" fill-opacity="1.000000" fill-rule="nonzero"/>
	<path id="Vector" d="M54.81 57.49L54.81 48.57C54.81 48.07 54.4 47.67 53.91 47.67C53.41 47.67 53.01 48.07 53.01 48.57L53.01 57.49C52.33 57.82 51.85 58.5 51.85 59.3C51.85 60.43 52.77 61.35 53.91 61.35C55.04 61.35 55.96 60.43 55.96 59.3C55.96 58.5 55.48 57.82 54.81 57.49Z" fill="#081A56" fill-opacity="1.000000" fill-rule="nonzero"/>
	<path id="Vector" d="M48.39 47.67C47.9 47.67 47.49 48.07 47.49 48.57L47.49 53.23C47.49 53.73 47.9 54.13 48.39 54.13C48.89 54.13 49.29 53.73 49.29 53.23L49.29 48.57C49.29 48.07 48.89 47.67 48.39 47.67Z" fill="#081A56" fill-opacity="1.000000" fill-rule="nonzero"/>
	<path id="Vector" d="M48.39 13.67C48.89 13.67 49.29 13.27 49.29 12.78L49.29 8.11C49.29 7.62 48.89 7.22 48.39 7.22C47.9 7.22 47.49 7.62 47.49 8.11L47.49 12.78C47.49 13.27 47.9 13.67 48.39 13.67Z" fill="#081A56" fill-opacity="1.000000" fill-rule="nonzero"/>
	<path id="Vector" d="M53.01 3.86L53.01 12.78C53.01 13.27 53.41 13.67 53.91 13.67C54.4 13.67 54.8 13.27 54.8 12.78L54.8 3.86C55.48 3.52 55.96 2.84 55.96 2.04C55.96 0.91 55.04 0 53.9 0C52.77 0 51.85 0.91 51.85 2.04C51.85 2.84 52.33 3.52 53.01 3.86Z" fill="#081A56" fill-opacity="1.000000" fill-rule="nonzero"/>
	<path id="Vector" d="M59.42 13.67C59.92 13.67 60.32 13.27 60.32 12.78L60.32 8.11C60.32 7.62 59.92 7.22 59.42 7.22C58.92 7.22 58.52 7.62 58.52 8.11L58.52 12.78C58.52 13.27 58.92 13.67 59.42 13.67Z" fill="#081A56" fill-opacity="1.000000" fill-rule="nonzero"/>
	<path id="Vector" d="M64.03 3.86L64.03 12.78C64.03 13.27 64.44 13.67 64.93 13.67C65.43 13.67 65.83 13.27 65.83 12.78L65.83 3.86C66.51 3.52 66.99 2.84 66.99 2.04C66.99 0.91 66.07 0 64.93 0C63.8 0 62.88 0.91 62.88 2.04C62.88 2.84 63.36 3.52 64.03 3.86Z" fill="#081A56" fill-opacity="1.000000" fill-rule="nonzero"/>
	<path id="Vector" d="M70.45 13.67C70.94 13.67 71.35 13.27 71.35 12.78L71.35 8.11C71.35 7.62 70.94 7.22 70.45 7.22C69.95 7.22 69.55 7.62 69.55 8.11L69.55 12.78C69.55 13.27 69.95 13.67 70.45 13.67Z" fill="#081A56" fill-opacity="1.000000" fill-rule="nonzero"/>
	<path id="Vector" d="M48.38 41.9L69.16 41.9C69.65 41.9 70.06 41.5 70.06 41.01L70.06 20.34C70.06 19.84 69.65 19.44 69.16 19.44L48.38 19.44C47.89 19.44 47.49 19.84 47.49 20.34L47.49 41.01C47.48 41.5 47.89 41.9 48.38 41.9ZM68.26 21.23L68.26 28.53L65.55 28.53L64.21 26.54C64.34 26.32 64.45 26.09 64.5 25.83C64.61 25.26 64.49 24.69 64.17 24.21C63.84 23.73 63.35 23.4 62.78 23.29C62.21 23.18 61.64 23.3 61.15 23.62C60.67 23.94 60.34 24.43 60.23 25C60.12 25.56 60.24 26.14 60.56 26.62C60.89 27.1 61.38 27.43 61.95 27.54C62.09 27.56 62.23 27.58 62.37 27.58C62.48 27.58 62.59 27.54 62.71 27.52L64.31 29.92C64.48 30.17 64.76 30.32 65.06 30.32L68.26 30.32L68.26 31.75L65.06 31.75C64.76 31.75 64.48 31.9 64.31 32.14L62.71 34.54C62.46 34.49 62.21 34.48 61.95 34.54C61.38 34.65 60.89 34.97 60.56 35.45C60.24 35.93 60.12 36.5 60.24 37.07C60.35 37.64 60.67 38.13 61.16 38.45C61.52 38.69 61.94 38.82 62.36 38.82C62.5 38.82 62.64 38.81 62.78 38.78C63.35 38.67 63.84 38.34 64.17 37.86C64.49 37.38 64.61 36.81 64.5 36.24C64.45 35.99 64.34 35.75 64.21 35.53L65.54 33.54L68.26 33.54L68.26 40.11L49.28 40.11L49.28 33.87L54.95 33.87L54.95 35.57C54.21 35.91 53.68 36.66 53.68 37.53C53.68 38.72 54.66 39.69 55.85 39.69C57.05 39.69 58.02 38.72 58.02 37.53C58.02 36.65 57.5 35.91 56.75 35.57L56.75 32.98C56.75 32.48 56.35 32.08 55.85 32.08L49.28 32.08L49.28 28.16L53.95 28.16C54.3 28.9 55.04 29.42 55.91 29.42C57.11 29.42 58.09 28.45 58.09 27.26C58.09 26.07 57.11 25.1 55.91 25.1C55.04 25.1 54.29 25.62 53.95 26.37L49.28 26.37L49.28 21.24L68.26 21.24L68.26 21.23Z" fill="#081A56" fill-opacity="1.000000" fill-rule="nonzero"/>
	<path id="Vector" d="M102.71 29.07L102.4 29.02C96.84 28.17 91.18 27.96 85.58 28.38C81.9 28.65 78.22 29.22 74.61 30.04L74.61 19.01C74.61 16.75 72.76 14.91 70.49 14.91L47.05 14.91C44.78 14.91 42.94 16.75 42.94 19.01L42.94 29.56C34.51 27.92 25.94 27.73 17.45 29.02L17.15 29.07C16.71 29.14 16.39 29.52 16.39 29.96L16.39 85.19C16.39 85.46 16.5 85.71 16.7 85.87C16.9 86.04 17.17 86.12 17.43 86.08L17.73 86.03C31.24 83.97 45.1 85.77 57.78 91.23L59.37 91.92C59.49 91.97 59.61 92 59.73 92C59.8 92 59.86 91.95 59.93 91.94C60 91.95 60.06 92 60.13 92C60.25 92 60.37 91.97 60.48 91.92L62.08 91.23C74.76 85.77 88.6 83.97 102.13 86.03L102.43 86.08C102.7 86.12 102.96 86.04 103.16 85.87C103.36 85.71 103.47 85.46 103.47 85.19L103.47 29.96C103.47 29.51 103.14 29.14 102.71 29.07ZM44.74 19.01C44.74 17.74 45.77 16.7 47.05 16.7L70.49 16.7C71.77 16.7 72.81 17.74 72.81 19.01L72.81 42.34C72.81 43.61 71.77 44.64 70.49 44.64L47.05 44.64C45.77 44.64 44.74 43.61 44.74 42.34L44.74 19.01ZM58.49 89.59C45.73 84.09 31.81 82.21 18.19 84.15L18.19 30.73C26.43 29.52 34.75 29.75 42.94 31.38L42.94 42.34C42.94 44.59 44.78 46.43 47.05 46.43L58.83 46.43L58.83 89.73L58.49 89.59ZM101.67 84.15C88.04 82.21 74.13 84.09 61.36 89.59L60.63 89.9L60.63 46.43L70.49 46.43C72.76 46.43 74.6 44.59 74.6 42.34L74.6 31.88C78.26 31.03 81.99 30.45 85.71 30.17C91.03 29.76 96.39 29.95 101.67 30.73L101.67 84.15L101.67 84.15Z" fill="#081A56" fill-opacity="1.000000" fill-rule="nonzero"/>
</svg>
