<svg width="22.750000" height="22.750000" viewBox="0 0 22.75 22.75" fill="none" xmlns="http://www.w3.org/2000/svg" xmlns:xlink="http://www.w3.org/1999/xlink">
	<desc>
			Created with Pixso.
	</desc>
	<defs/>
	<path id="Vector" d="M11.37 0C9.12 0 6.92 0.66 5.05 1.91C3.18 3.16 1.72 4.94 0.86 7.02C0 9.1 -0.23 11.38 0.21 13.59C0.65 15.8 1.74 17.82 3.33 19.41C4.92 21 6.94 22.09 9.15 22.53C11.36 22.97 13.64 22.74 15.72 21.88C17.8 21.02 19.58 19.56 20.83 17.69C22.08 15.82 22.75 13.62 22.75 11.37C22.74 8.35 21.54 5.46 19.41 3.33C17.27 1.2 14.39 0 11.37 0ZM16.78 9.38L10.37 15.5C10.21 15.66 9.99 15.75 9.76 15.75C9.65 15.75 9.54 15.73 9.44 15.68C9.33 15.64 9.24 15.58 9.16 15.5L5.96 12.44C5.87 12.36 5.79 12.27 5.74 12.16C5.69 12.06 5.66 11.94 5.66 11.82C5.65 11.71 5.67 11.59 5.71 11.48C5.75 11.37 5.82 11.27 5.9 11.18C5.98 11.09 6.08 11.03 6.18 10.98C6.29 10.93 6.41 10.91 6.53 10.91C6.64 10.91 6.76 10.93 6.87 10.98C6.98 11.02 7.08 11.09 7.16 11.17L9.76 13.66L15.58 8.11C15.75 7.96 15.97 7.89 16.2 7.9C16.42 7.91 16.64 8 16.79 8.17C16.95 8.33 17.03 8.55 17.03 8.78C17.03 9 16.94 9.22 16.78 9.38Z" fill="#136BA3" fill-opacity="1.000000" fill-rule="evenodd"/>
</svg>
