<svg width="35.628906" height="32.000000" viewBox="0 0 35.6289 32" fill="none" xmlns="http://www.w3.org/2000/svg" xmlns:xlink="http://www.w3.org/1999/xlink">
	<desc>
			Created with Pixso.
	</desc>
	<defs/>
	<path id="Vector" d="M32.65 7.61L32.65 20.38C32.65 24.06 29.33 27.05 25.23 27.05L10.39 27.05C9.7 27.05 9.05 26.97 8.41 26.81C7.49 26.58 7.2 25.53 7.88 24.91L23.66 10.74C23.99 10.45 24.48 10.38 24.94 10.46C25.41 10.54 25.93 10.42 26.3 10.1L30.12 6.66C31.51 5.41 32.65 5.82 32.65 7.61Z" fill="#1FE8FD" fill-opacity="1.000000" fill-rule="nonzero"/>
	<path id="Vector" d="M21.73 9.81L6.19 23.77C5.47 24.41 4.29 24.25 3.81 23.45C3.26 22.54 2.96 21.49 2.96 20.38L2.96 7.61C2.96 5.82 4.11 5.41 5.5 6.66L9.33 10.12C9.91 10.62 10.86 10.62 11.44 10.12L16.76 5.33C17.33 4.81 18.28 4.81 18.86 5.33L21.74 7.91C22.31 8.43 22.31 9.29 21.73 9.81Z" fill="#1FE8FD" fill-opacity="1.000000" fill-rule="nonzero"/>
	<g opacity="0.000000"/>
</svg>
