<svg width="120.000000" height="92.000000" viewBox="0 0 120 92" fill="none" xmlns="http://www.w3.org/2000/svg" xmlns:xlink="http://www.w3.org/1999/xlink">
	<desc>
			Created with Pixso.
	</desc>
	<defs/>
	<path id="Vector" d="M89.01 39.39L87.02 39.39C89.08 43.5 90.26 48.12 90.26 53.02C90.26 54.36 90.15 55.68 89.98 56.98C94.42 56.49 97.9 52.78 97.9 48.23C97.9 43.35 93.91 39.39 89.01 39.39Z" fill="#49BAFC" fill-opacity="1.000000" fill-rule="nonzero"/>
	<path id="Vector" d="M67.88 41.4C65.79 41.4 63.79 42.04 62.1 43.24C60.47 44.41 58.36 44.41 56.72 43.24C55.03 42.04 53.04 41.4 50.94 41.4C45.52 41.4 41.11 45.63 41.11 50.84C41.11 56.05 45.52 60.28 50.94 60.28L67.88 60.28C73.3 60.28 77.71 56.05 77.71 50.84C77.71 45.63 73.3 41.4 67.88 41.4Z" fill="#49BAFC" fill-opacity="1.000000" fill-rule="nonzero"/>
	<path id="Vector" d="M31.81 39.39L29.81 39.39C24.91 39.39 20.92 43.35 20.92 48.23C20.92 52.78 24.4 56.5 28.85 56.98C28.67 55.67 28.56 54.35 28.56 53.02C28.56 48.12 29.75 43.5 31.81 39.39Z" fill="#49BAFC" fill-opacity="1.000000" fill-rule="nonzero"/>
	<path id="Vector" d="M59.41 13.38C61 13.38 62.29 12.09 62.29 10.51C62.29 8.94 61 7.66 59.41 7.66C57.83 7.66 56.54 8.94 56.54 10.51C56.54 12.09 57.83 13.38 59.41 13.38Z" fill="#49BAFC" fill-opacity="1.000000" fill-rule="nonzero"/>
	<path id="Vector" d="M59.41 24.21C43.45 24.21 30.47 37.13 30.47 53.01C30.47 59.76 32.86 66.32 37.2 71.48C37.39 71.7 37.46 71.98 37.41 72.26C37.37 72.48 36.44 77.62 34.47 81.75C33.5 83.78 31.96 87.14 30.97 89.32C33.75 88.24 38.46 86.4 40.43 85.52C42.83 84.45 50.16 80.67 50.23 80.63C50.45 80.51 50.71 80.49 50.95 80.56C53.68 81.39 56.53 81.81 59.41 81.81C75.37 81.81 88.36 68.89 88.36 53.01C88.36 37.13 75.37 24.21 59.41 24.21ZM64.93 70.19L53.89 70.19C53.36 70.19 52.94 69.77 52.94 69.24C52.94 68.72 53.36 68.29 53.89 68.29L64.93 68.29C65.46 68.29 65.88 68.72 65.88 69.24C65.88 69.77 65.46 70.19 64.93 70.19ZM67.88 62.18L50.94 62.18C44.47 62.18 39.2 57.09 39.2 50.84C39.2 44.59 44.47 39.5 50.94 39.5C53.44 39.5 55.82 40.26 57.83 41.7C58.81 42.39 60.02 42.39 60.99 41.7C63 40.26 65.38 39.5 67.88 39.5C74.35 39.5 79.62 44.59 79.62 50.84C79.62 57.09 74.35 62.18 67.88 62.18Z" fill="#FFFFFF" fill-opacity="1.000000" fill-rule="nonzero"/>
	<path id="Vector" d="M99.81 48.23C99.81 42.31 94.97 37.48 89.01 37.48L85.98 37.48C80.76 28.68 71.28 22.7 60.37 22.36L60.37 15.18C62.55 14.74 64.2 12.81 64.2 10.51C64.2 7.89 62.05 5.76 59.41 5.76C56.77 5.76 54.63 7.89 54.63 10.51C54.63 12.81 56.28 14.74 58.46 15.18L58.46 22.36C47.55 22.69 38.06 28.68 32.84 37.48L29.81 37.48C23.86 37.48 19.01 42.31 19.01 48.23C19.01 53.94 23.51 58.61 29.16 58.94C30.13 63.83 32.27 68.45 35.45 72.35C35.18 73.66 34.29 77.7 32.75 80.94C31.22 84.14 28.26 90.65 28.26 90.65C28.1 91 28.17 91.42 28.44 91.7C28.62 91.89 28.88 92 29.13 92C29.25 92 29.36 91.98 29.48 91.93C29.83 91.8 38.29 88.56 41.21 87.26C43.39 86.29 49.27 83.27 50.77 82.5C53.57 83.31 56.47 83.72 59.41 83.72C74.39 83.72 86.89 73.04 89.68 58.94C95.32 58.6 99.81 53.94 99.81 48.23ZM56.54 10.52C56.54 8.94 57.83 7.66 59.41 7.66C60.99 7.66 62.28 8.94 62.28 10.52C62.28 12.09 60.99 13.38 59.41 13.38C57.83 13.38 56.54 12.09 56.54 10.52ZM20.92 48.23C20.92 43.35 24.91 39.38 29.81 39.38L31.8 39.38C29.74 43.5 28.56 48.11 28.56 53.01C28.56 54.35 28.67 55.67 28.84 56.98C24.4 56.49 20.92 52.78 20.92 48.23ZM59.41 81.82C56.53 81.82 53.68 81.4 50.95 80.57C50.71 80.49 50.45 80.51 50.23 80.63C50.16 80.67 42.83 84.46 40.43 85.53C38.46 86.4 33.75 88.24 30.97 89.32C31.96 87.14 33.5 83.78 34.47 81.76C36.44 77.62 37.37 72.48 37.41 72.26C37.46 71.99 37.39 71.7 37.2 71.48C32.86 66.32 30.47 59.76 30.47 53.02C30.47 37.13 43.45 24.22 59.41 24.22C75.37 24.22 88.36 37.13 88.36 53.02C88.36 68.9 75.37 81.82 59.41 81.82ZM89.98 56.98C90.15 55.68 90.27 54.36 90.27 53.01C90.27 48.11 89.08 43.5 87.02 39.38L89.02 39.38C93.92 39.38 97.91 43.35 97.91 48.23C97.9 52.78 94.42 56.49 89.98 56.98Z" fill="#081A56" fill-opacity="1.000000" fill-rule="nonzero"/>
	<path id="Vector" d="M64.93 68.29L53.89 68.29C53.36 68.29 52.94 68.72 52.94 69.24C52.94 69.77 53.36 70.19 53.89 70.19L64.93 70.19C65.46 70.19 65.88 69.77 65.88 69.24C65.88 68.72 65.46 68.29 64.93 68.29Z" fill="#081A56" fill-opacity="1.000000" fill-rule="nonzero"/>
	<path id="Vector" d="M67.88 39.5C65.38 39.5 63 40.26 60.99 41.7C60.02 42.39 58.81 42.39 57.84 41.7C55.82 40.26 53.44 39.5 50.94 39.5C44.47 39.5 39.2 44.59 39.2 50.84C39.2 57.09 44.47 62.18 50.94 62.18L67.88 62.18C74.36 62.18 79.63 57.09 79.63 50.84C79.62 44.59 74.35 39.5 67.88 39.5ZM67.88 60.28L50.94 60.28C45.52 60.28 41.11 56.05 41.11 50.84C41.11 45.63 45.52 41.4 50.94 41.4C53.04 41.4 55.03 42.04 56.72 43.24C58.36 44.41 60.47 44.41 62.1 43.24C63.79 42.04 65.79 41.4 67.88 41.4C73.3 41.4 77.71 45.63 77.71 50.84C77.71 56.05 73.3 60.28 67.88 60.28Z" fill="#081A56" fill-opacity="1.000000" fill-rule="nonzero"/>
	<path id="Vector" d="M73.55 19.8C73.28 20.25 73.43 20.83 73.89 21.1C74.04 21.19 74.21 21.23 74.37 21.23C74.7 21.23 75.02 21.07 75.2 20.77C81.05 10.96 75.45 0.9 75.21 0.48C74.95 0.02 74.37 -0.13 73.91 0.12C73.45 0.38 73.29 0.96 73.55 1.41C73.6 1.51 78.83 10.95 73.55 19.8Z" fill="#081A56" fill-opacity="1.000000" fill-rule="nonzero"/>
	<path id="Vector" d="M70.04 15.92C69.77 16.37 69.92 16.95 70.37 17.22C70.53 17.31 70.69 17.35 70.86 17.35C71.19 17.35 71.5 17.19 71.68 16.89C75.3 10.83 71.84 4.62 71.69 4.36C71.43 3.9 70.86 3.74 70.39 4C69.94 4.26 69.77 4.84 70.03 5.3C70.06 5.35 73.08 10.82 70.04 15.92Z" fill="#081A56" fill-opacity="1.000000" fill-rule="nonzero"/>
	<path id="Vector" d="M66.74 13.06C66.47 13.51 66.62 14.09 67.07 14.36C67.23 14.45 67.4 14.49 67.56 14.49C67.89 14.49 68.2 14.33 68.38 14.03C70.35 10.73 68.47 7.36 68.39 7.22C68.13 6.77 67.55 6.61 67.1 6.86C66.64 7.12 66.48 7.7 66.73 8.16C66.79 8.26 68.13 10.72 66.74 13.06Z" fill="#081A56" fill-opacity="1.000000" fill-rule="nonzero"/>
	<path id="Vector" d="M44.45 21.23C44.62 21.23 44.78 21.19 44.94 21.1C45.39 20.83 45.54 20.25 45.27 19.8C39.99 10.95 45.23 1.51 45.28 1.41C45.54 0.96 45.38 0.38 44.92 0.12C44.46 -0.14 43.88 0.02 43.62 0.47C43.38 0.9 37.78 10.96 43.63 20.76C43.81 21.07 44.12 21.23 44.45 21.23Z" fill="#081A56" fill-opacity="1.000000" fill-rule="nonzero"/>
	<path id="Vector" d="M47.96 17.35C48.13 17.35 48.3 17.31 48.45 17.22C48.91 16.95 49.05 16.37 48.78 15.92C45.74 10.82 48.76 5.35 48.8 5.29C49.05 4.84 48.89 4.26 48.43 4C47.97 3.74 47.39 3.9 47.13 4.36C46.98 4.62 43.53 10.83 47.14 16.89C47.32 17.19 47.64 17.35 47.96 17.35Z" fill="#081A56" fill-opacity="1.000000" fill-rule="nonzero"/>
	<path id="Vector" d="M51.26 14.49C51.43 14.49 51.6 14.45 51.75 14.36C52.2 14.09 52.35 13.51 52.08 13.06C50.69 10.72 52.04 8.26 52.1 8.15C52.35 7.7 52.19 7.12 51.73 6.86C51.28 6.6 50.69 6.76 50.43 7.22C50.35 7.36 48.48 10.73 50.44 14.02C50.62 14.33 50.94 14.49 51.26 14.49Z" fill="#081A56" fill-opacity="1.000000" fill-rule="nonzero"/>
</svg>
