<svg width="23.333008" height="18.312500" viewBox="0 0 23.333 18.3125" fill="none" xmlns="http://www.w3.org/2000/svg" xmlns:xlink="http://www.w3.org/1999/xlink">
	<desc>
			Created with Pixso.
	</desc>
	<defs>
		<linearGradient x1="21.011898" y1="1.144487" x2="2.015682" y2="16.023392" id="paint_linear_49_1654_0" gradientUnits="userSpaceOnUse">
			<stop offset="0.289863" stop-color="#090EDB"/>
			<stop offset="1.000000" stop-color="#8D1EA2"/>
		</linearGradient>
	</defs>
	<path id="Vector" d="M12.98 0.48C13.3 0.17 13.72 0 14.16 0C14.6 0 15.03 0.17 15.34 0.48L22.84 7.98C23.15 8.3 23.33 8.72 23.33 9.16C23.33 9.6 23.15 10.03 22.84 10.34L15.34 17.84C15.03 18.14 14.6 18.31 14.17 18.31C13.73 18.3 13.31 18.13 13 17.82C12.69 17.51 12.52 17.09 12.52 16.66C12.51 16.22 12.68 15.8 12.98 15.48L17.5 10.83L1.66 10.83C1.22 10.83 0.8 10.65 0.48 10.34C0.17 10.03 0 9.6 0 9.16C0 8.72 0.17 8.3 0.48 7.98C0.8 7.67 1.22 7.49 1.66 7.49L17.5 7.49L12.98 2.84C12.67 2.53 12.5 2.1 12.5 1.66C12.5 1.22 12.67 0.8 12.98 0.48Z" fill="url(#paint_linear_49_1654_0)" fill-opacity="1.000000" fill-rule="nonzero"/>
</svg>
