<svg width="120.000000" height="92.000000" viewBox="0 0 120 92" fill="none" xmlns="http://www.w3.org/2000/svg" xmlns:xlink="http://www.w3.org/1999/xlink">
	<desc>
			Created with Pixso.
	</desc>
	<defs/>
	<path id="Vector" d="M58.46 58.59C70.72 58.59 80.7 48.69 80.7 36.52C80.7 24.35 70.72 14.45 58.46 14.45C46.2 14.45 36.22 24.35 36.22 36.52C36.22 48.69 46.2 58.59 58.46 58.59ZM62.72 49.87L54.2 49.87C53.73 49.87 53.34 49.49 53.34 49.02C53.34 48.56 53.73 48.18 54.2 48.18L62.72 48.18C63.2 48.18 63.58 48.56 63.58 49.02C63.58 49.49 63.2 49.87 62.72 49.87ZM51.92 25.99C53.87 25.99 55.73 26.58 57.31 27.71C58.03 28.22 58.89 28.23 59.61 27.71C61.19 26.58 63.05 25.99 65 25.99C70.07 25.99 74.19 29.96 74.19 34.84C74.19 39.73 70.07 43.7 65 43.7L51.92 43.7C46.85 43.7 42.73 39.73 42.73 34.84C42.73 29.96 46.85 25.99 51.92 25.99Z" fill="#FFFFFF" fill-opacity="1.000000" fill-rule="nonzero"/>
	<path id="Vector" d="M51.92 42L65 42C69.12 42 72.48 38.79 72.48 34.84C72.48 30.9 69.13 27.69 65 27.69C63.41 27.69 61.89 28.17 60.61 29.08C59.3 30.01 57.62 30.01 56.32 29.08C55.03 28.17 53.51 27.69 51.92 27.69C47.8 27.69 44.44 30.9 44.44 34.84C44.44 38.79 47.8 42 51.92 42Z" fill="#49BAFC" fill-opacity="1.000000" fill-rule="nonzero"/>
	<path id="Vector" d="M60.57 3.78C60.57 4.93 59.62 5.87 58.46 5.87C57.3 5.87 56.36 4.93 56.36 3.78C56.36 2.63 57.3 1.69 58.46 1.69C59.62 1.69 60.57 2.63 60.57 3.78Z" fill="#49BAFC" fill-opacity="1.000000" fill-rule="evenodd"/>
	<path id="Vector" d="M82.21 39.45C85.51 39.01 88.08 36.23 88.08 32.84C88.08 29.14 85.05 26.14 81.33 26.14L79.97 26.14C81.52 29.28 82.41 32.79 82.41 36.52C82.41 37.51 82.33 38.48 82.21 39.45Z" fill="#49BAFC" fill-opacity="1.000000" fill-rule="nonzero"/>
	<path id="Vector" d="M36.95 26.14L35.6 26.14C31.88 26.14 28.85 29.14 28.85 32.84C28.85 36.23 31.41 39.01 34.71 39.45C34.59 38.48 34.51 37.51 34.51 36.52C34.51 32.79 35.4 29.28 36.95 26.14Z" fill="#49BAFC" fill-opacity="1.000000" fill-rule="nonzero"/>
	<path id="Vector" d="M90.88 72.38L63.31 72.38L57.93 90.15L58.04 90.3L59.1 90.3L85.61 90.3C85.66 90.3 85.71 90.26 85.72 90.22L90.99 72.52L90.88 72.38ZM74.46 85.44C72.18 85.44 70.33 83.6 70.33 81.34C70.33 79.08 72.18 77.24 74.46 77.24C76.74 77.24 78.59 79.08 78.59 81.34C78.59 83.6 76.74 85.44 74.46 85.44Z" fill="#FFFFFF" fill-opacity="1.000000" fill-rule="nonzero"/>
	<path id="Vector" d="M74.46 78.93C73.13 78.93 72.04 80.01 72.04 81.34C72.04 82.67 73.12 83.75 74.46 83.75C75.8 83.75 76.89 82.67 76.89 81.34C76.89 80.01 75.8 78.93 74.46 78.93Z" fill="#49BAFC" fill-opacity="1.000000" fill-rule="nonzero"/>
	<path id="Vector" d="M46.91 84.15C46.91 83.68 47.29 83.3 47.76 83.3L58.19 83.3L61.56 71.98C61.79 71.22 62.51 70.68 63.31 70.68L80.3 70.68C79.41 67.47 76.44 65.13 73.02 65.13L63.3 65.13C63.29 65.13 63.27 65.13 63.27 65.13C62.77 65.26 60.88 65.73 58.04 65.73C55.71 65.73 54.09 65.27 53.63 65.12C53.61 65.13 53.6 65.13 53.58 65.13L43.91 65.13C39.73 65.13 36.34 68.51 36.34 72.65L36.34 86.99C36.34 88.81 37.83 90.3 39.67 90.3L56.23 90.3C56.22 90.09 56.23 89.88 56.29 89.67L57.68 85L47.76 85C47.29 85 46.91 84.62 46.91 84.15Z" fill="#49BAFC" fill-opacity="1.000000" fill-rule="nonzero"/>
	<path id="Vector" d="M54.64 59.96L54.64 63.64C55.3 63.8 56.49 64.03 58.04 64.03C60.02 64.03 61.51 63.78 62.28 63.61L62.28 59.96C61.04 60.16 59.77 60.29 58.46 60.29C57.16 60.29 55.89 60.16 54.64 59.96Z" fill="#FFFFFF" fill-opacity="1.000000" fill-rule="nonzero"/>
	<path id="Vector" d="M63.32 49.02C63.32 48.56 62.94 48.18 62.47 48.18L53.94 48.18C53.47 48.18 53.09 48.56 53.09 49.02C53.09 49.49 53.47 49.87 53.94 49.87L62.47 49.87C62.94 49.87 63.32 49.49 63.32 49.02Z" fill="#081A56" fill-opacity="1.000000" fill-rule="nonzero"/>
	<path id="Vector" d="M73.93 34.84C73.93 29.96 69.81 25.99 64.75 25.99C62.8 25.99 60.93 26.58 59.35 27.71C58.63 28.22 57.78 28.21 57.06 27.71C55.48 26.58 53.62 25.99 51.66 25.99C46.6 25.99 42.48 29.96 42.48 34.84C42.48 39.72 46.6 43.7 51.66 43.7L64.75 43.7C69.81 43.7 73.93 39.73 73.93 34.84ZM44.19 34.84C44.19 30.9 47.54 27.69 51.66 27.69C53.25 27.69 54.78 28.17 56.06 29.08C57.36 30.01 59.05 30.01 60.35 29.08C61.64 28.17 63.16 27.69 64.75 27.69C68.87 27.69 72.23 30.9 72.23 34.84C72.23 38.79 68.87 42 64.75 42L51.66 42C47.54 42 44.19 38.79 44.19 34.84Z" fill="#081A56" fill-opacity="1.000000" fill-rule="nonzero"/>
	<path id="Vector" d="M92.09 71.41C91.74 70.95 91.21 70.68 90.63 70.68L81.79 70.68C80.87 66.52 77.11 63.44 72.76 63.44L63.74 63.44L63.74 59.63C72.79 57.49 79.86 50.27 81.69 41.17C86.06 40.85 89.53 37.25 89.53 32.84C89.53 28.21 85.73 24.44 81.07 24.44L78.8 24.44C74.76 17.69 67.46 13.09 59.06 12.79L59.06 7.46C60.75 7.07 62.02 5.57 62.02 3.78C62.02 1.69 60.31 0 58.21 0C56.1 0 54.39 1.69 54.39 3.78C54.39 5.57 55.66 7.07 57.35 7.46L57.35 12.79C48.95 13.09 41.66 17.69 37.62 24.44L35.34 24.44C30.67 24.44 26.88 28.21 26.88 32.84C26.88 37.25 30.35 40.85 34.72 41.17C36.55 50.27 43.63 57.49 52.67 59.62L52.67 63.44L43.65 63.44C38.53 63.44 34.37 67.57 34.37 72.65L34.37 86.99C34.37 89.75 36.63 92 39.41 92L57.78 92L58.85 92L85.36 92C86.16 92 86.88 91.46 87.11 90.7L92.38 73.01C92.54 72.46 92.44 71.87 92.09 71.41ZM81.07 26.14C84.79 26.14 87.82 29.14 87.82 32.84C87.82 36.23 85.26 39.01 81.95 39.45C82.07 38.48 82.15 37.51 82.15 36.52C82.15 32.79 81.26 29.28 79.71 26.14L81.07 26.14ZM56.1 3.78C56.1 2.63 57.05 1.69 58.21 1.69C59.37 1.69 60.31 2.63 60.31 3.78C60.31 4.93 59.37 5.87 58.21 5.87C57.05 5.87 56.1 4.93 56.1 3.78ZM34.46 39.45C31.15 39.01 28.59 36.23 28.59 32.84C28.59 29.14 31.62 26.14 35.34 26.14L36.69 26.14C35.15 29.28 34.25 32.79 34.25 36.52C34.26 37.51 34.34 38.48 34.46 39.45ZM35.96 36.52C35.96 24.35 45.94 14.45 58.2 14.45C70.47 14.45 80.44 24.35 80.44 36.52C80.44 48.69 70.47 58.59 58.2 58.59C45.94 58.59 35.96 48.69 35.96 36.52ZM62.03 59.96L62.03 63.61C61.25 63.78 59.76 64.03 57.78 64.03C56.23 64.03 55.04 63.8 54.38 63.64L54.38 59.96C55.63 60.16 56.9 60.29 58.2 60.29C59.51 60.29 60.78 60.16 62.03 59.96ZM56.03 89.67C55.97 89.88 55.96 90.09 55.97 90.3L39.42 90.3C37.58 90.3 36.08 88.81 36.08 86.99L36.08 72.65C36.08 68.51 39.48 65.13 43.65 65.13L53.32 65.13C53.34 65.13 53.36 65.12 53.38 65.12C53.84 65.27 55.45 65.73 57.79 65.73C60.62 65.73 62.52 65.26 63.01 65.13C63.02 65.13 63.03 65.13 63.04 65.13L72.76 65.13C76.19 65.13 79.16 67.47 80.04 70.68L63.05 70.68C62.25 70.68 61.53 71.22 61.3 71.98L57.93 83.3L47.51 83.3C47.03 83.3 46.65 83.68 46.65 84.15C46.65 84.62 47.03 85 47.51 85L57.42 85L56.03 89.67ZM85.47 90.22C85.45 90.27 85.41 90.3 85.36 90.3L58.85 90.3L57.78 90.3L57.67 90.15L63.05 72.38L90.63 72.38L90.74 72.53L85.47 90.22Z" fill="#081A56" fill-opacity="1.000000" fill-rule="nonzero"/>
	<path id="Vector" d="M74.21 77.24C71.93 77.24 70.07 79.08 70.07 81.34C70.07 83.6 71.93 85.44 74.21 85.44C76.49 85.44 78.34 83.6 78.34 81.34C78.34 79.08 76.49 77.24 74.21 77.24ZM74.21 83.74C72.87 83.74 71.78 82.67 71.78 81.34C71.78 80.01 72.87 78.93 74.21 78.93C75.54 78.93 76.63 80.01 76.63 81.34C76.63 82.67 75.54 83.74 74.21 83.74Z" fill="#081A56" fill-opacity="1.000000" fill-rule="nonzero"/>
	<path id="Vector" d="M63.32 49.02C63.32 48.56 62.94 48.18 62.47 48.18L53.94 48.18C53.47 48.18 53.09 48.56 53.09 49.02C53.09 49.49 53.47 49.87 53.94 49.87L62.47 49.87C62.94 49.87 63.32 49.49 63.32 49.02Z" fill="#081A56" fill-opacity="1.000000" fill-rule="nonzero"/>
	<path id="Vector" d="M73.93 34.84C73.93 29.96 69.81 25.99 64.75 25.99C62.8 25.99 60.93 26.58 59.35 27.71C58.63 28.22 57.78 28.21 57.06 27.71C55.48 26.58 53.62 25.99 51.66 25.99C46.6 25.99 42.48 29.96 42.48 34.84C42.48 39.72 46.6 43.7 51.66 43.7L64.75 43.7C69.81 43.7 73.93 39.73 73.93 34.84ZM44.19 34.84C44.19 30.9 47.54 27.69 51.66 27.69C53.25 27.69 54.78 28.17 56.06 29.08C57.36 30.01 59.05 30.01 60.35 29.08C61.64 28.17 63.16 27.69 64.75 27.69C68.87 27.69 72.23 30.9 72.23 34.84C72.23 38.79 68.87 42 64.75 42L51.66 42C47.54 42 44.19 38.79 44.19 34.84Z" fill="#081A56" fill-opacity="1.000000" fill-rule="nonzero"/>
	<path id="Vector" d="M92.09 71.41C91.74 70.95 91.21 70.68 90.63 70.68L81.79 70.68C80.87 66.52 77.11 63.44 72.76 63.44L63.74 63.44L63.74 59.63C72.79 57.49 79.86 50.27 81.69 41.17C86.06 40.85 89.53 37.25 89.53 32.84C89.53 28.21 85.73 24.44 81.07 24.44L78.8 24.44C74.76 17.69 67.46 13.09 59.06 12.79L59.06 7.46C60.75 7.07 62.02 5.57 62.02 3.78C62.02 1.69 60.31 0 58.21 0C56.1 0 54.39 1.69 54.39 3.78C54.39 5.57 55.66 7.07 57.35 7.46L57.35 12.79C48.95 13.09 41.66 17.69 37.62 24.44L35.34 24.44C30.67 24.44 26.88 28.21 26.88 32.84C26.88 37.25 30.35 40.85 34.72 41.17C36.55 50.27 43.63 57.49 52.67 59.62L52.67 63.44L43.65 63.44C38.53 63.44 34.37 67.57 34.37 72.65L34.37 86.99C34.37 89.75 36.63 92 39.41 92L57.78 92L58.85 92L85.36 92C86.16 92 86.88 91.46 87.11 90.7L92.38 73.01C92.54 72.46 92.44 71.87 92.09 71.41ZM81.07 26.14C84.79 26.14 87.82 29.14 87.82 32.84C87.82 36.23 85.26 39.01 81.95 39.45C82.07 38.48 82.15 37.51 82.15 36.52C82.15 32.79 81.26 29.28 79.71 26.14L81.07 26.14ZM56.1 3.78C56.1 2.63 57.05 1.69 58.21 1.69C59.37 1.69 60.31 2.63 60.31 3.78C60.31 4.93 59.37 5.87 58.21 5.87C57.05 5.87 56.1 4.93 56.1 3.78ZM34.46 39.45C31.15 39.01 28.59 36.23 28.59 32.84C28.59 29.14 31.62 26.14 35.34 26.14L36.69 26.14C35.15 29.28 34.25 32.79 34.25 36.52C34.26 37.51 34.34 38.48 34.46 39.45ZM35.96 36.52C35.96 24.35 45.94 14.45 58.2 14.45C70.47 14.45 80.44 24.35 80.44 36.52C80.44 48.69 70.47 58.59 58.2 58.59C45.94 58.59 35.96 48.69 35.96 36.52ZM62.03 59.96L62.03 63.61C61.25 63.78 59.76 64.03 57.78 64.03C56.23 64.03 55.04 63.8 54.38 63.64L54.38 59.96C55.63 60.16 56.9 60.29 58.2 60.29C59.51 60.29 60.78 60.16 62.03 59.96ZM56.03 89.67C55.97 89.88 55.96 90.09 55.97 90.3L39.42 90.3C37.58 90.3 36.08 88.81 36.08 86.99L36.08 72.65C36.08 68.51 39.48 65.13 43.65 65.13L53.32 65.13C53.34 65.13 53.36 65.12 53.38 65.12C53.84 65.27 55.45 65.73 57.79 65.73C60.62 65.73 62.52 65.26 63.01 65.13C63.02 65.13 63.03 65.13 63.04 65.13L72.76 65.13C76.19 65.13 79.16 67.47 80.04 70.68L63.05 70.68C62.25 70.68 61.53 71.22 61.3 71.98L57.93 83.3L47.51 83.3C47.03 83.3 46.65 83.68 46.65 84.15C46.65 84.62 47.03 85 47.51 85L57.42 85L56.03 89.67ZM85.47 90.22C85.45 90.27 85.41 90.3 85.36 90.3L58.85 90.3L57.78 90.3L57.67 90.15L63.05 72.38L90.63 72.38L90.74 72.53L85.47 90.22Z" fill="#081A56" fill-opacity="1.000000" fill-rule="nonzero"/>
	<path id="Vector" d="M74.21 77.24C71.93 77.24 70.07 79.08 70.07 81.34C70.07 83.6 71.93 85.44 74.21 85.44C76.49 85.44 78.34 83.6 78.34 81.34C78.34 79.08 76.49 77.24 74.21 77.24ZM74.21 83.74C72.87 83.74 71.78 82.67 71.78 81.34C71.78 80.01 72.87 78.93 74.21 78.93C75.54 78.93 76.63 80.01 76.63 81.34C76.63 82.67 75.54 83.74 74.21 83.74Z" fill="#081A56" fill-opacity="1.000000" fill-rule="nonzero"/>
</svg>
