<svg width="30.000000" height="30.000000" viewBox="0 0 30 30" fill="none" xmlns="http://www.w3.org/2000/svg" xmlns:xlink="http://www.w3.org/1999/xlink">
	<desc>
			Created with Pixso.
	</desc>
	<defs/>
	<path id="Vector" d="M7.03 0L22.96 0C26.85 0 30 3.14 30 7.03L30 22.96C30 26.85 26.85 30 22.96 30L7.03 30C3.14 30 0 26.85 0 22.96L0 7.03C0 3.14 3.14 0 7.03 0Z" fill="#FFFFFF" fill-opacity="1.000000" fill-rule="evenodd"/>
	<path id="Vector" d="M7.03 0L22.96 0C26.85 0 30 3.14 30 7.03L30 22.96C30 26.85 26.85 30 22.96 30L7.03 30C3.14 30 0 26.85 0 22.96L0 7.03C0 3.14 3.14 0 7.03 0Z" fill="#49BAFC" fill-opacity="1.000000" fill-rule="evenodd"/>
	<path id="Vector" d="M23.38 10.71C23.4 10.89 23.4 11.08 23.4 11.27C23.4 16.99 19.04 23.58 11.08 23.58L11.08 23.58C8.73 23.58 6.43 22.91 4.45 21.64C4.79 21.68 5.13 21.7 5.48 21.7C7.43 21.7 9.32 21.05 10.85 19.84C9.95 19.83 9.07 19.53 8.35 18.99C7.62 18.45 7.09 17.7 6.81 16.84C7.46 16.96 8.13 16.94 8.76 16.76C6.75 16.36 5.29 14.58 5.29 12.52L5.29 12.47C5.89 12.8 6.57 12.99 7.26 13.01C5.35 11.74 4.77 9.21 5.92 7.23C7 8.57 8.36 9.66 9.9 10.44C11.43 11.22 13.12 11.66 14.84 11.75C14.66 11.01 14.69 10.24 14.91 9.52C15.13 8.79 15.54 8.14 16.09 7.62C17.83 5.98 20.57 6.06 22.21 7.8C23.18 7.61 24.11 7.26 24.96 6.75C24.64 7.76 23.96 8.61 23.06 9.15C23.91 9.05 24.75 8.82 25.54 8.47C24.96 9.34 24.23 10.09 23.38 10.71Z" fill="#FFFFFF" fill-opacity="1.000000" fill-rule="nonzero"/>
</svg>
